<svg width="32" height="32" viewBox="0 0 32 32" fill="none" xmlns="http://www.w3.org/2000/svg">
  <rect width="32" height="32" rx="8" fill="#E5B876"/>
  <path d="M16 8C12.686 8 10 10.686 10 14C10 17.314 12.686 20 16 20C19.314 20 22 17.314 22 14C22 10.686 19.314 8 16 8Z" fill="white"/>
  <circle cx="14" cy="12" r="1.5" fill="#E5B876"/>
  <circle cx="18" cy="12" r="1.5" fill="#E5B876"/>
  <path d="M13 16C13 16.5523 13.4477 17 14 17H18C18.5523 17 19 16.5523 19 16C19 15.4477 18.5523 15 18 15H14C13.4477 15 13 15.4477 13 16Z" fill="#E5B876"/>
  <path d="M10 22C10 24.2091 11.7909 26 14 26H18C20.2091 26 22 24.2091 22 22V21H10V22Z" fill="white"/>
</svg>